<?xml version="1.0" standalone="no"?>
<!DOCTYPE svg PUBLIC "-//W3C//DTD SVG 20010904//EN"
 "http://www.w3.org/TR/2001/REC-SVG-20010904/DTD/svg10.dtd">
<svg version="1.0" xmlns="http://www.w3.org/2000/svg"
 width="1004.000000pt" height="1004.000000pt" viewBox="0 0 1004.000000 1004.000000"
 preserveAspectRatio="xMidYMid meet">
<metadata>
Created by potrace 1.11, written by Peter Selinger 2001-2013
</metadata>
<g transform="translate(0.000000,1004.000000) scale(0.100000,-0.100000)"
fill="#000000" stroke="none">
<path d="M0 5015 l0 -3305 5020 0 5020 0 0 3305 0 3305 -5020 0 -5020 0 0
-3305z m7996 1448 c161 -53 311 -165 401 -298 58 -86 69 -111 103 -228 30
-103 30 -106 30 -349 l0 -246 40 -59 c50 -76 95 -166 110 -223 7 -25 17 -51
22 -57 6 -7 7 -13 4 -13 -4 0 -2 -8 3 -19 20 -37 33 -232 21 -325 -39 -318
-220 -577 -520 -743 -272 -151 -678 -151 -950 0 -149 83 -280 197 -357 312
-131 195 -188 420 -163 637 6 56 16 110 21 120 5 10 7 18 3 18 -3 0 -2 6 4 13
5 6 15 32 22 57 15 57 60 147 110 223 l40 59 0 246 c0 243 0 246 30 349 35
121 45 142 113 241 79 114 226 228 353 273 117 41 173 49 324 45 129 -3 155
-6 236 -33z m-5207 -454 c90 -14 194 -60 273 -120 79 -59 112 -100 103 -129
-10 -32 -33 -24 -96 34 -215 194 -532 192 -752 -5 -63 -56 -84 -61 -93 -22
-16 61 195 205 346 237 80 18 136 19 219 5z m54 -229 c59 -23 134 -70 171
-109 30 -32 32 -67 4 -84 -13 -9 -26 -3 -63 32 -59 54 -150 97 -223 105 -99
11 -216 -30 -297 -105 -48 -44 -69 -49 -85 -18 -9 16 -8 26 4 44 41 62 170
139 264 155 63 11 166 2 225 -20z m0 -233 c31 -20 63 -48 69 -62 10 -22 9 -29
-10 -48 l-22 -21 -32 31 c-88 85 -207 86 -302 3 -35 -32 -37 -32 -56 -15 -29
26 -25 43 17 83 61 57 106 73 198 70 73 -3 85 -7 138 -41z m-107 -166 c84 -51
55 -191 -39 -191 -16 0 -37 5 -48 10 -23 13 -49 61 -49 92 0 32 35 87 63 98
32 13 39 12 73 -9z m-1036 -251 c-16 -10 -8 -14 23 -11 21 3 23 -31 3 -49 -26
-21 -61 -8 -64 24 -4 29 10 46 38 46 13 0 13 -1 0 -10z m-1029 -34 c-7 -8 -20
-12 -29 -9 -14 6 -15 4 -4 -9 8 -11 14 -60 17 -143 2 -70 6 -130 9 -133 3 -2
23 9 44 26 27 22 47 30 63 27 13 -3 40 -8 59 -11 45 -9 93 -42 86 -60 -3 -8 1
-14 10 -14 10 0 14 -6 11 -14 -3 -8 -1 -16 4 -18 5 -2 16 -30 24 -63 7 -33 17
-68 20 -77 5 -13 0 -17 -22 -20 l-28 -4 30 -9 c16 -5 43 -21 58 -37 16 -15 36
-28 45 -28 13 0 14 -2 4 -9 -8 -4 -40 -9 -72 -9 -57 -1 -58 -1 -73 36 -9 20
-19 62 -23 92 -9 79 -39 168 -65 196 -39 42 -135 27 -173 -28 -12 -17 -16 -48
-16 -124 l0 -101 -26 5 c-19 3 -25 1 -20 -7 4 -6 18 -11 30 -11 28 0 54 -25
34 -33 -7 -3 -3 -6 10 -6 14 -1 20 -5 17 -12 -8 -12 -195 -10 -195 3 0 4 11 8
24 8 37 0 47 22 53 120 5 71 9 90 20 86 17 -7 17 2 0 18 -9 10 -14 53 -15 147
-1 74 -4 151 -7 172 -5 36 -4 37 22 31 19 -5 24 -4 18 5 -4 7 -18 11 -31 8
-13 -2 -28 1 -33 7 -7 9 9 12 61 15 63 2 70 1 59 -13z m349 -7 c-25 -11 -55
-29 -67 -41 -24 -22 -43 -17 -43 12 0 10 -5 22 -12 26 -20 13 22 23 97 23 l70
1 -45 -21z m2067 11 c-131 -22 -210 -143 -211 -320 0 -133 59 -257 145 -300
22 -12 39 -23 36 -26 -2 -2 -35 3 -73 12 -159 37 -255 166 -242 328 16 189
156 314 353 314 l40 0 -48 -8z m2273 -294 c0 -264 2 -307 16 -320 14 -15 10
-16 -46 -16 -39 0 -59 4 -55 10 4 6 0 23 -8 38 -9 19 -11 36 -5 52 13 35 12
200 -1 234 -8 20 -9 31 -1 36 14 9 20 118 11 203 l-7 67 48 0 48 0 0 -304z
m-2044 237 c7 -2 19 6 28 19 16 22 16 22 16 -22 1 -25 5 -65 10 -90 11 -57 6
-63 -14 -16 -8 20 -40 61 -70 91 l-54 55 36 -16 c21 -9 42 -18 48 -21z m-2396
-16 c0 -8 -134 -137 -138 -132 -2 2 20 29 49 60 30 31 56 61 57 66 3 8 32 14
32 6z m1535 -137 c-3 -5 -12 -10 -18 -10 -7 0 -6 4 3 10 19 12 23 12 15 0z
m-1149 -22 c-14 -13 -29 -39 -34 -58 -7 -28 -13 -35 -33 -35 -18 0 -25 6 -26
25 -2 14 3 32 10 41 15 19 66 47 90 48 15 1 14 -3 -7 -21z m134 7 c38 -19 49
-41 48 -93 0 -31 -4 -42 -17 -43 -14 -1 -14 -2 1 -6 15 -4 17 -16 17 -73 -1
-63 -2 -67 -21 -62 -14 3 -19 1 -14 -6 4 -7 14 -12 22 -12 8 0 14 -10 14 -25
0 -14 0 -28 0 -32 1 -5 15 -16 33 -25 l32 -18 -60 3 c-50 2 -60 5 -63 21 -3
14 0 17 12 13 9 -4 16 -3 16 2 0 18 -39 18 -56 0 -9 -10 -22 -19 -28 -19 -6 0
-1 8 10 18 28 22 44 54 44 86 0 14 6 26 13 26 7 0 8 3 2 8 -5 4 -11 25 -13 46
-1 22 -4 41 -6 43 -6 6 -139 -81 -156 -102 -8 -10 -14 -35 -14 -56 1 -30 -2
-39 -15 -39 -32 0 45 -32 81 -33 45 -2 41 -12 -7 -20 -49 -8 -93 10 -110 44
-20 37 -19 51 6 99 17 32 26 40 41 36 11 -2 17 -2 14 1 -3 4 24 19 60 34 37
16 75 36 85 45 28 26 25 85 -7 123 -21 25 -23 31 -9 31 9 0 29 -7 45 -15z
m283 4 c22 -10 23 -15 22 -99 -1 -49 -4 -92 -8 -96 -3 -4 -3 -12 1 -18 12 -19
10 -146 -2 -146 -6 0 -3 -7 7 -14 29 -22 20 -27 -45 -21 -59 5 -93 15 -50 15
35 0 42 31 42 179 0 87 4 141 10 141 6 0 10 5 10 10 0 6 -4 10 -10 10 -10 0
-50 36 -50 45 0 9 49 5 73 -6z m276 -36 c-2 -30 1 -48 9 -51 7 -2 9 -8 6 -14
-4 -5 -8 -46 -11 -91 -2 -48 -9 -85 -16 -89 -8 -5 -8 -8 -1 -8 6 0 14 -18 18
-40 5 -30 13 -43 29 -49 21 -8 21 -8 2 -14 -23 -6 -106 -7 -117 0 -4 2 1 12
12 23 12 12 16 26 13 40 -4 13 0 26 8 31 8 5 9 9 4 9 -7 0 -11 46 -12 119 l-2
120 27 10 27 11 -27 -5 c-19 -4 -34 1 -48 15 -11 11 -20 22 -20 25 0 3 23 5
51 5 l51 0 -3 -47z m196 31 c22 -22 15 -58 -11 -62 -14 -2 -27 6 -38 22 -18
29 -62 35 -85 14 -11 -11 -12 -10 -6 0 10 18 63 41 97 42 15 0 34 -7 43 -16z
m356 5 c48 -17 64 -30 47 -40 -10 -7 -10 -9 2 -9 46 0 99 -127 72 -171 -7 -10
-9 -24 -6 -32 6 -16 -49 -91 -86 -118 -14 -10 -38 -21 -55 -24 -27 -6 -28 -5
-10 6 37 22 67 54 80 87 8 17 21 32 29 32 9 0 16 5 16 11 0 6 -6 9 -14 6 -10
-4 -13 7 -13 53 1 90 -39 171 -97 196 -38 16 -12 18 35 3z m-154 -26 c-42 -45
-59 -97 -56 -177 2 -53 8 -82 26 -113 13 -24 20 -43 16 -44 -4 0 12 -9 37 -19
40 -17 42 -19 17 -19 -77 -2 -167 100 -167 189 0 21 5 30 17 30 16 0 15 1 -1
13 -17 12 -14 47 5 47 5 0 9 7 9 15 0 9 7 18 16 22 8 3 13 12 10 19 -3 9 9 24
32 38 51 34 73 33 39 -1z m2493 2 c6 -8 10 -26 8 -42 -5 -43 -43 -44 -77 -2
-21 24 -33 31 -49 27 -31 -8 -16 11 20 26 33 14 83 10 98 -9z m233 -2 c-41
-36 -53 -78 -53 -177 0 -98 23 -157 70 -181 28 -14 34 -14 61 -1 16 8 27 10
24 5 -13 -20 -62 -36 -103 -33 -107 8 -173 127 -146 262 9 43 69 111 118 133
57 26 65 23 29 -8z m-1452 -62 c2 -159 6 -238 13 -259 9 -26 61 -56 79 -46 8
5 8 3 -1 -7 -18 -19 -94 -16 -126 4 -35 23 -44 69 -48 234 l-3 142 25 3 c54 7
60 1 61 -71z m270 12 c0 -38 1 -125 2 -195 2 -138 2 -138 -55 -138 -28 0 -29
2 -27 38 2 25 -1 36 -9 34 -10 -2 -10 2 0 20 8 15 12 71 12 160 l1 137 25 4
c14 2 31 5 38 6 8 1 12 -19 13 -66z m272 55 c-6 -7 -16 -30 -22 -50 -14 -43
-45 -58 -69 -34 -22 22 -2 63 41 81 41 18 63 19 50 3z m153 -4 c19 -9 37 -26
39 -38 3 -11 7 -82 9 -156 1 -74 6 -143 10 -152 5 -11 19 -18 35 -18 43 0 4
-18 -58 -26 -50 -6 -55 -5 -76 21 -20 26 -21 31 -9 54 16 30 19 157 4 166 -6
4 -6 15 0 31 17 44 12 91 -12 114 l-22 20 23 0 c13 0 38 -7 57 -16z m324 -13
c0 -30 21 -56 35 -43 4 4 2 -4 -5 -18 -13 -25 -20 -228 -10 -280 5 -24 3 -25
-53 -28 -56 -4 -58 -3 -48 16 14 26 15 301 1 337 -14 36 -6 45 41 45 36 0 39
-2 39 -29z m-1364 -100 l51 -1 -8 -47 c-4 -27 -8 -73 -8 -104 -1 -55 -1 -55
-45 -77 -42 -22 -131 -52 -151 -52 -5 0 8 9 31 20 52 26 64 53 64 146 0 66 -3
78 -24 97 l-24 22 32 -2 c17 -1 54 -2 82 -2z m944 -56 c0 -2 -18 -14 -40 -25
-47 -24 -68 -78 -49 -126 12 -34 26 -44 57 -44 36 0 17 -17 -27 -25 -27 -4
-49 -2 -69 9 -34 18 -42 33 -42 85 0 47 25 72 106 105 67 29 64 28 64 21z
m-3030 -570 c0 -77 3 -105 13 -106 9 0 9 -2 0 -5 -7 -3 -21 0 -32 5 -13 7 -22
8 -26 1 -18 -29 -85 15 -85 55 0 12 10 35 22 50 18 23 27 26 55 22 37 -6 42 7
23 57 -8 23 -7 26 10 26 19 0 20 -7 20 -105z m80 90 c0 -8 -4 -15 -9 -15 -13
0 -22 16 -14 24 11 11 23 6 23 -9z m700 -90 c0 -77 3 -105 13 -106 9 0 9 -2 0
-5 -7 -3 -21 0 -32 5 -13 7 -22 8 -26 1 -18 -29 -85 15 -85 55 0 12 10 35 22
50 18 23 27 26 55 22 37 -6 42 7 23 57 -8 23 -7 26 10 26 19 0 20 -7 20 -105z
m560 60 c0 -44 0 -44 30 -39 54 11 92 -44 65 -96 -18 -35 -47 -46 -86 -30 -29
12 -29 13 -29 99 0 54 -5 92 -12 99 -9 9 -7 12 10 12 19 0 22 -5 22 -45z m170
30 c0 -8 -4 -15 -9 -15 -13 0 -22 16 -14 24 11 11 23 6 23 -9z m870 -90 c0
-77 3 -105 13 -106 9 0 9 -2 0 -5 -7 -3 -21 0 -32 5 -13 7 -22 8 -26 1 -18
-29 -85 15 -85 55 0 12 10 35 22 50 18 23 27 26 55 22 37 -6 42 7 23 57 -8 23
-7 26 10 26 19 0 20 -7 20 -105z m-2811 55 c0 -31 -1 -33 -9 -12 -11 27 -55
45 -88 37 -31 -8 -56 -67 -47 -111 6 -35 46 -74 75 -74 10 0 29 9 44 21 14 11
26 16 26 10 0 -20 -61 -43 -97 -36 -54 10 -83 45 -83 100 0 38 5 52 30 76 27
28 34 30 90 27 l60 -3 -1 -35z m1535 11 c54 -51 38 -139 -29 -167 -40 -17
-181 -20 -152 -3 14 8 17 25 17 99 0 61 -4 90 -12 94 -7 3 24 5 69 3 70 -2 85
-5 107 -26z m835 -11 c0 -31 -1 -33 -9 -12 -11 27 -55 45 -88 37 -31 -8 -56
-67 -47 -111 6 -35 46 -74 75 -74 10 0 29 9 44 21 14 11 26 16 26 10 0 -20
-61 -43 -97 -36 -54 10 -83 45 -83 100 0 38 5 52 30 76 27 28 34 30 90 27 l60
-3 -1 -35z m723 23 c21 -19 24 -56 4 -72 -7 -6 -34 -14 -60 -17 -46 -7 -46 -7
-46 -45 0 -26 6 -41 18 -48 13 -8 8 -10 -28 -11 -34 0 -41 3 -32 12 17 17 16
185 0 191 -7 3 18 6 56 6 51 1 74 -3 88 -16z m-2454 -54 l27 -2 -27 -4 c-27
-4 -28 -7 -28 -59 0 -47 3 -56 23 -64 21 -8 21 -9 2 -9 -33 -1 -45 19 -45 76
0 40 -4 53 -15 53 -10 0 -8 6 8 23 20 20 22 20 25 5 2 -12 13 -19 30 -19z
m1420 0 l27 -2 -27 -4 c-27 -4 -28 -7 -28 -59 0 -47 3 -56 23 -64 21 -8 21 -9
2 -9 -33 -1 -45 19 -45 76 0 40 -4 53 -15 53 -10 0 -8 6 8 23 20 20 22 20 25
5 2 -12 13 -19 30 -19z m1445 0 c21 -2 21 -2 -1 -6 -21 -4 -23 -9 -20 -61 3
-51 5 -57 25 -56 12 0 20 -3 17 -8 -8 -12 -38 -10 -52 4 -7 7 -12 36 -12 65 0
40 -4 53 -15 53 -10 0 -8 6 8 23 20 20 22 20 25 5 2 -10 13 -19 25 -19z m400
0 c21 -2 21 -2 -1 -6 -21 -4 -23 -9 -20 -61 3 -51 5 -57 25 -56 12 0 20 -3 17
-8 -8 -12 -38 -10 -52 4 -7 7 -12 36 -12 65 0 30 -4 53 -10 53 -6 0 -3 11 7
24 17 22 18 23 21 5 2 -11 12 -20 25 -20z m-3823 -63 c0 -42 4 -66 13 -69 6
-3 -6 -5 -28 -5 -22 0 -34 2 -27 5 7 3 12 26 12 63 0 37 -5 60 -12 63 -7 3 -1
6 15 6 27 1 27 0 27 -63z m60 49 c0 -8 -4 -15 -10 -15 -5 0 -10 5 -10 11 0 6
-7 8 -16 5 -8 -3 -12 -2 -9 4 10 16 45 12 45 -5z m122 -2 c22 -19 24 -45 3
-37 -8 3 -13 10 -12 16 4 19 -30 33 -47 19 -24 -20 -20 -31 12 -32 l27 -2 -27
-4 c-32 -5 -38 -32 -12 -57 18 -19 28 -20 57 -4 20 10 21 10 8 -5 -18 -23 -53
-21 -85 4 -31 25 -33 57 -5 93 23 30 54 33 81 9z m258 -47 c0 -42 4 -66 13
-69 6 -3 -6 -5 -28 -5 -22 0 -34 2 -27 5 7 3 12 26 12 63 0 37 -5 60 -12 63
-7 3 -1 6 15 6 27 1 27 0 27 -63z m338 52 c7 -7 12 -36 12 -65 0 -34 4 -53 12
-53 6 0 9 -2 6 -5 -3 -4 -16 -3 -29 0 -22 5 -24 11 -22 61 2 43 -1 56 -14 61
-9 4 -21 -1 -29 -12 -8 -10 -17 -16 -20 -12 -4 4 -1 13 6 22 15 18 61 20 78 3z
m99 1 c8 -8 13 -8 17 0 9 15 49 14 64 -1 7 -7 12 -35 12 -64 0 -33 5 -54 13
-57 6 -3 -6 -5 -28 -5 -22 0 -34 2 -27 5 19 7 16 112 -3 119 -8 4 -22 1 -30
-6 -20 -17 -30 -79 -16 -102 10 -16 8 -18 -21 -17 -18 0 -27 3 -20 6 7 3 12
26 12 63 0 37 -5 60 -12 63 -7 3 -4 6 8 6 11 1 25 -4 31 -10z m735 -6 c20 -18
24 -47 6 -40 -7 2 -13 10 -13 17 0 22 -31 36 -49 21 -24 -20 -20 -31 12 -32
l27 -2 -27 -4 c-32 -5 -38 -32 -12 -57 18 -19 28 -20 57 -4 20 10 21 10 8 -5
-18 -23 -53 -21 -85 4 -31 25 -33 57 -5 93 23 30 54 33 81 9z m258 -47 c0 -42
4 -66 13 -69 6 -3 -6 -5 -28 -5 -22 0 -34 2 -27 5 7 3 12 26 12 63 0 37 -5 60
-12 63 -7 3 -1 6 15 6 27 1 27 0 27 -63z m548 52 c7 -7 12 -36 12 -65 0 -34 4
-53 12 -53 6 0 9 -2 6 -5 -3 -4 -16 -3 -29 0 -22 5 -24 11 -22 61 2 43 -1 56
-14 61 -9 4 -21 -1 -29 -12 -8 -10 -17 -16 -20 -12 -4 4 -1 13 6 22 15 18 61
20 78 3z m92 -52 c0 -42 4 -66 13 -69 6 -3 -6 -5 -28 -5 -22 0 -34 2 -27 5 7
3 12 26 12 63 0 37 -5 60 -12 63 -7 3 -1 6 15 6 27 1 27 0 27 -63z m60 49 c0
-8 -4 -15 -10 -15 -5 0 -10 5 -10 11 0 6 -7 8 -16 5 -8 -3 -12 -2 -9 4 10 16
45 12 45 -5z m530 -49 c0 -42 4 -66 13 -69 6 -3 -6 -5 -28 -5 -22 0 -34 2 -27
5 7 3 12 26 12 63 0 37 -5 60 -12 63 -7 3 -1 6 15 6 27 1 27 0 27 -63z m60 49
c0 -8 -4 -15 -10 -15 -5 0 -10 5 -10 11 0 6 -7 8 -16 5 -8 -3 -12 -2 -9 4 10
16 45 12 45 -5z m150 -5 c26 -26 25 -60 -1 -94 -25 -31 -57 -33 -93 -5 -32 25
-34 64 -4 96 27 29 71 30 98 3z m252 3 c22 -19 24 -45 3 -37 -8 3 -13 10 -12
16 4 19 -30 33 -47 19 -24 -20 -20 -31 12 -32 l27 -2 -27 -4 c-32 -5 -38 -32
-12 -57 18 -19 28 -20 57 -4 20 10 21 10 8 -5 -18 -23 -53 -21 -85 4 -32 25
-34 64 -4 96 25 27 54 29 80 6z m157 4 c17 -21 0 -29 -21 -10 -26 24 -52 6
-56 -39 -4 -47 28 -79 61 -59 21 12 21 12 5 -4 -31 -33 -98 3 -98 53 0 53 78
96 109 59z m261 -7 c26 -26 25 -60 -1 -94 -25 -31 -57 -33 -93 -5 -32 25 -34
64 -4 96 27 29 71 30 98 3z m90 -44 c0 -42 4 -66 13 -69 6 -3 -6 -5 -28 -5
-22 0 -34 2 -27 5 7 3 12 26 12 63 0 37 -5 60 -12 63 -7 3 -1 6 15 6 27 1 27
0 27 -63z m60 49 c0 -8 -4 -15 -10 -15 -5 0 -10 5 -10 11 0 6 -7 8 -16 5 -8
-3 -12 -2 -9 4 10 16 45 12 45 -5z m-3403 -63 c-22 -24 -21 -38 1 -52 16 -11
16 -11 -1 -6 -10 3 -22 6 -27 6 -18 0 -18 32 0 50 25 25 49 27 27 2z m1640 0
c-22 -24 -21 -38 1 -52 16 -11 16 -11 -1 -6 -10 3 -22 6 -27 6 -18 0 -18 32 0
50 25 25 49 27 27 2z"/>
<path d="M7607 6234 c-91 -22 -163 -61 -233 -127 -70 -65 -100 -109 -141 -208
-25 -61 -26 -73 -31 -299 -5 -278 -3 -284 69 -224 60 50 190 113 269 130 85
18 305 18 390 0 79 -17 209 -80 269 -130 72 -60 74 -54 69 224 -5 226 -6 238
-31 299 -41 99 -71 143 -141 208 -130 122 -314 170 -489 127z"/>
<path d="M7662 5051 c-94 -32 -145 -104 -145 -202 0 -64 33 -134 78 -163 l25
-16 0 -178 c0 -194 3 -208 60 -237 53 -28 120 -11 154 37 13 18 16 55 16 200
l0 178 25 16 c45 29 78 99 78 163 0 101 -57 177 -155 206 -64 19 -71 19 -136
-4z"/>
<path d="M905 4700 c-3 -5 1 -10 9 -10 9 0 16 5 16 10 0 6 -4 10 -9 10 -6 0
-13 -4 -16 -10z"/>
<path d="M608 4633 c7 -3 16 -2 19 1 4 3 -2 6 -13 5 -11 0 -14 -3 -6 -6z"/>
<path d="M2625 4740 c4 -6 11 -8 16 -5 14 9 11 15 -7 15 -8 0 -12 -5 -9 -10z"/>
<path d="M1152 4118 c-16 -16 -15 -70 2 -94 12 -15 18 -17 33 -8 13 8 18 24
18 60 0 41 -3 49 -20 52 -11 1 -26 -3 -33 -10z"/>
<path d="M1932 4118 c-16 -16 -15 -70 2 -94 12 -15 18 -17 33 -8 13 8 18 24
18 60 0 41 -3 49 -20 52 -11 1 -26 -3 -33 -10z"/>
<path d="M2590 4110 c-16 -29 -8 -81 13 -94 27 -16 61 27 53 68 -10 48 -47 62
-66 26z"/>
<path d="M3532 4118 c-16 -16 -15 -70 2 -94 12 -15 18 -17 33 -8 13 8 18 24
18 60 0 41 -3 49 -20 52 -11 1 -26 -3 -33 -10z"/>
<path d="M2217 4193 c-10 -19 -8 -155 4 -169 34 -42 119 15 119 81 0 47 -44
95 -89 95 -16 0 -32 -3 -34 -7z"/>
<path d="M3800 4155 c0 -41 2 -45 25 -45 27 0 65 31 65 53 0 22 -23 37 -57 37
-32 0 -33 -1 -33 -45z"/>
<path d="M4122 4118 c-17 -17 -15 -74 4 -92 32 -33 64 -11 64 44 0 39 -14 60
-40 60 -9 0 -21 -5 -28 -12z"/>
<path d="M4792 4118 c-27 -27 -7 -108 26 -108 28 0 42 21 42 60 0 39 -14 60
-40 60 -9 0 -21 -5 -28 -12z"/>
</g>
</svg>
